{"asset":{"version":"2.0","generator":"THREE.GLTFExporter"},"scenes":[{"name":"AuxScene","nodes":[32]}],"scene":0,"nodes":[{"matrix":[1,0,0,0,0,1,0,0,0,0,1,0,2,2.605,0.03,1],"name":"pL-0-0","extras":{"longueur":4000,"numeroLigne":0,"indexPergola":0},"mesh":0},{"matrix":[1,0,0,0,0,1,0,0,0,0,1,0,0.03,0,0,1],"name":"pl-0-0-0","extras":{"largeur":2880,"numeroLigne":0,"numeroPoutre":0,"indexPergola":0},"mesh":1},{"matrix":[0.7071067811865475,-0.7071067811865476,0,0,0.7071067811865476,0.7071067811865475,0,0,0,0,1,0,-1.8439999999999999,0.08299999999999999,0,1],"name":"lame-0-0-0-0","extras":{"indexPergola":0},"mesh":2},{"matrix":[0.7071067811865475,-0.7071067811865476,0,0,0.7071067811865476,0.7071067811865475,0,0,0,0,1,0,-1.652,0.08299999999999999,0,1],"name":"lame-0-0-0-1","extras":{"indexPergola":0},"mesh":2},{"matrix":[0.7071067811865475,-0.7071067811865476,0,0,0.7071067811865476,0.7071067811865475,0,0,0,0,1,0,-1.46,0.08299999999999999,0,1],"name":"lame-0-0-0-2","extras":{"indexPergola":0},"mesh":2},{"matrix":[0.7071067811865475,-0.7071067811865476,0,0,0.7071067811865476,0.7071067811865475,0,0,0,0,1,0,-1.268,0.08299999999999999,0,1],"name":"lame-0-0-0-3","extras":{"indexPergola":0},"mesh":2},{"matrix":[0.7071067811865475,-0.7071067811865476,0,0,0.7071067811865476,0.7071067811865475,0,0,0,0,1,0,-1.0759999999999998,0.08299999999999999,0,1],"name":"lame-0-0-0-4","extras":{"indexPergola":0},"mesh":2},{"matrix":[0.7071067811865475,-0.7071067811865476,0,0,0.7071067811865476,0.7071067811865475,0,0,0,0,1,0,-0.884,0.08299999999999999,0,1],"name":"lame-0-0-0-5","extras":{"indexPergola":0},"mesh":2},{"matrix":[0.7071067811865475,-0.7071067811865476,0,0,0.7071067811865476,0.7071067811865475,0,0,0,0,1,0,-0.6920000000000001,0.08299999999999999,0,1],"name":"lame-0-0-0-6","extras":{"indexPergola":0},"mesh":2},{"matrix":[0.7071067811865475,-0.7071067811865476,0,0,0.7071067811865476,0.7071067811865475,0,0,0,0,1,0,-0.5,0.08299999999999999,0,1],"name":"lame-0-0-0-7","extras":{"indexPergola":0},"mesh":2},{"matrix":[0.7071067811865475,-0.7071067811865476,0,0,0.7071067811865476,0.7071067811865475,0,0,0,0,1,0,-0.30800000000000005,0.08299999999999999,0,1],"name":"lame-0-0-0-8","extras":{"indexPergola":0},"mesh":2},{"matrix":[0.7071067811865475,-0.7071067811865476,0,0,0.7071067811865476,0.7071067811865475,0,0,0,0,1,0,-0.11599999999999999,0.08299999999999999,0,1],"name":"lame-0-0-0-9","extras":{"indexPergola":0},"mesh":2},{"matrix":[0.7071067811865475,-0.7071067811865476,0,0,0.7071067811865476,0.7071067811865475,0,0,0,0,1,0,0.076,0.08299999999999999,0,1],"name":"lame-0-0-0-10","extras":{"indexPergola":0},"mesh":2},{"matrix":[0.7071067811865475,-0.7071067811865476,0,0,0.7071067811865476,0.7071067811865475,0,0,0,0,1,0,0.268,0.08299999999999999,0,1],"name":"lame-0-0-0-11","extras":{"indexPergola":0},"mesh":2},{"matrix":[0.7071067811865475,-0.7071067811865476,0,0,0.7071067811865476,0.7071067811865475,0,0,0,0,1,0,0.45999999999999996,0.08299999999999999,0,1],"name":"lame-0-0-0-12","extras":{"indexPergola":0},"mesh":2},{"matrix":[0.7071067811865475,-0.7071067811865476,0,0,0.7071067811865476,0.7071067811865475,0,0,0,0,1,0,0.652,0.08299999999999999,0,1],"name":"lame-0-0-0-13","extras":{"indexPergola":0},"mesh":2},{"matrix":[0.7071067811865475,-0.7071067811865476,0,0,0.7071067811865476,0.7071067811865475,0,0,0,0,1,0,0.844,0.08299999999999999,0,1],"name":"lame-0-0-0-14","extras":{"indexPergola":0},"mesh":2},{"matrix":[0.7071067811865475,-0.7071067811865476,0,0,0.7071067811865476,0.7071067811865475,0,0,0,0,1,0,1.036,0.08299999999999999,0,1],"name":"lame-0-0-0-15","extras":{"indexPergola":0},"mesh":2},{"matrix":[0.7071067811865475,-0.7071067811865476,0,0,0.7071067811865476,0.7071067811865475,0,0,0,0,1,0,1.228,0.08299999999999999,0,1],"name":"lame-0-0-0-16","extras":{"indexPergola":0},"mesh":2},{"matrix":[0.7071067811865475,-0.7071067811865476,0,0,0.7071067811865476,0.7071067811865475,0,0,0,0,1,0,1.4200000000000002,0.08299999999999999,0,1],"name":"lame-0-0-0-17","extras":{"indexPergola":0},"mesh":2},{"matrix":[0.7071067811865475,-0.7071067811865476,0,0,0.7071067811865476,0.7071067811865475,0,0,0,0,1,0,1.612,0.08299999999999999,0,1],"name":"lame-0-0-0-18","extras":{"indexPergola":0},"mesh":2},{"matrix":[0.7071067811865475,-0.7071067811865476,0,0,0.7071067811865476,0.7071067811865475,0,0,0,0,1,0,1.804,0.08299999999999999,0,1],"name":"lame-0-0-0-19","extras":{"indexPergola":0},"mesh":2},{"extras":{"indexPergola":0},"children":[2,3,4,5,6,7,8,9,10,11,12,13,14,15,16,17,18,19,20,21]},{"matrix":[1,0,0,0,0,1,0,0,0,0,1,0,2,-0.03,0,1],"name":"k-0-0-0","extras":{"indexPergola":0},"children":[22]},{"matrix":[1,0,0,0,0,1,0,0,0,0,1,0,3.9699999999999998,0,0,1],"name":"pl-0-0-1","extras":{"largeur":2880,"numeroLigne":0,"numeroPoutre":1,"indexPergola":0},"mesh":3},{"matrix":[1,0,0,0,0,1,0,0,0,0,1,0,0,2.605,1.5,1],"name":"ligne-0-0","extras":{"indexPergola":0},"children":[1,23,24]},{"matrix":[1,0,0,0,0,1,0,0,0,0,1,0,2,2.605,2.9699999999999998,1],"name":"pL-0-1","extras":{"longueur":4000,"numeroLigne":1,"indexPergola":0},"mesh":4},{"matrix":[1,0,0,0,0,1,0,0,0,0,1,0,0.0675,1.25,2.9325,1],"name":"poteau-0-0","extras":{"index":0,"ip":{"numeroLigne":0,"numeroPoutre":0,"positionPoutreLigne":"POSITION_POUTRE_INFERIEURE","positionLongueur":"POSITION_LONGUEUR_DROITE","positionLargeur":"POSITION_LARGEUR_DESSUS","decalageX":0,"decalageZ":0,"estCompatibleEvacuation":true,"estDescenteEau":false,"priseMesure":{"from":"PRISE_MESURE_AXE","to":"PRISE_MESURE_AXE"},"typePoteau":"TYPE_POTEAU_STANDARD","hauteur":null},"indexPergola":0},"mesh":5},{"extras":{"indexPergola":0},"children":[27]},{"matrix":[1,0,0,0,0,1,0,0,0,0,1,0,3.9325,1.25,2.9325,1],"name":"poteau-0-1","extras":{"index":1,"ip":{"numeroLigne":0,"numeroPoutre":1,"positionPoutreLigne":"POSITION_POUTRE_INFERIEURE","positionLongueur":"POSITION_LONGUEUR_GAUCHE","positionLargeur":"POSITION_LARGEUR_DESSUS","decalageX":0,"decalageZ":0,"estCompatibleEvacuation":true,"estDescenteEau":true,"priseMesure":{"from":"PRISE_MESURE_AXE","to":"PRISE_MESURE_AXE"},"typePoteau":"TYPE_POTEAU_STANDARD","hauteur":null},"indexPergola":0},"mesh":6},{"extras":{"indexPergola":0},"children":[29]},{"name":"pergola-0","extras":{"bb":{"isBox3":true,"min":{"x":-2.682209010451686e-9,"y":0,"z":6.705522526129215e-10},"max":{"x":4.000000002682209,"y":2.925000000745058,"z":3.000000002682209}},"longueurPergola":4000,"largeurPergola":3000,"hauteurPergola":2710,"indexPergola":0,"hauteur":2710},"children":[0,25,26,28,30]},{"name":"dossier","extras":{"bb":{"isBox3":true,"min":{"x":-2.9802325607342084e-9,"y":0,"z":-2.980232227667301e-9},"max":{"x":4.000000002682209,"y":2.925000000745058,"z":3.000000002682209}},"longueurDossier":4001,"largeurDossier":3001},"children":[31]}],"bufferViews":[{"buffer":0,"byteOffset":0,"byteLength":288,"target":34962,"byteStride":12},{"buffer":0,"byteOffset":288,"byteLength":288,"target":34962,"byteStride":12},{"buffer":0,"byteOffset":576,"byteLength":192,"target":34962,"byteStride":8},{"buffer":0,"byteOffset":768,"byteLength":72,"target":34963},{"buffer":0,"byteOffset":840,"byteLength":288,"target":34962,"byteStride":12},{"buffer":0,"byteOffset":1128,"byteLength":288,"target":34962,"byteStride":12},{"buffer":0,"byteOffset":1416,"byteLength":192,"target":34962,"byteStride":8},{"buffer":0,"byteOffset":1608,"byteLength":72,"target":34963},{"buffer":0,"byteOffset":1680,"byteLength":288,"target":34962,"byteStride":12},{"buffer":0,"byteOffset":1968,"byteLength":288,"target":34962,"byteStride":12},{"buffer":0,"byteOffset":2256,"byteLength":192,"target":34962,"byteStride":8},{"buffer":0,"byteOffset":2448,"byteLength":72,"target":34963},{"buffer":0,"byteOffset":2520,"byteLength":288,"target":34962,"byteStride":12},{"buffer":0,"byteOffset":2808,"byteLength":288,"target":34962,"byteStride":12},{"buffer":0,"byteOffset":3096,"byteLength":192,"target":34962,"byteStride":8},{"buffer":0,"byteOffset":3288,"byteLength":72,"target":34963},{"buffer":0,"byteOffset":3360,"byteLength":288,"target":34962,"byteStride":12},{"buffer":0,"byteOffset":3648,"byteLength":288,"target":34962,"byteStride":12},{"buffer":0,"byteOffset":3936,"byteLength":192,"target":34962,"byteStride":8},{"buffer":0,"byteOffset":4128,"byteLength":72,"target":34963},{"buffer":0,"byteOffset":4200,"byteLength":288,"target":34962,"byteStride":12},{"buffer":0,"byteOffset":4488,"byteLength":288,"target":34962,"byteStride":12},{"buffer":0,"byteOffset":4776,"byteLength":192,"target":34962,"byteStride":8},{"buffer":0,"byteOffset":4968,"byteLength":72,"target":34963},{"buffer":0,"byteOffset":5040,"byteLength":288,"target":34962,"byteStride":12},{"buffer":0,"byteOffset":5328,"byteLength":288,"target":34962,"byteStride":12},{"buffer":0,"byteOffset":5616,"byteLength":192,"target":34962,"byteStride":8},{"buffer":0,"byteOffset":5808,"byteLength":72,"target":34963}],"buffers":[{"byteLength":5880,"uri":"data:application/octet-stream;base64,"}],"accessors":[{"bufferView":0,"componentType":5126,"count":24,"max":[2,0.10499999672174454,0.029999999329447746],"min":[-2,-0.10499999672174454,-0.029999999329447746],"type":"VEC3"},{"bufferView":1,"componentType":5126,"count":24,"max":[1,1,1],"min":[-1,-1,-1],"type":"VEC3"},{"bufferView":2,"componentType":5126,"count":24,"max":[1,1],"min":[0,0],"type":"VEC2"},{"bufferView":3,"componentType":5123,"count":36,"max":[23],"min":[0],"type":"SCALAR"},{"bufferView":4,"componentType":5126,"count":24,"max":[0.029999999329447746,0.10499999672174454,1.440000057220459],"min":[-0.029999999329447746,-0.10499999672174454,-1.440000057220459],"type":"VEC3"},{"bufferView":5,"componentType":5126,"count":24,"max":[1,1,1],"min":[-1,-1,-1],"type":"VEC3"},{"bufferView":6,"componentType":5126,"count":24,"max":[1,1],"min":[0,0],"type":"VEC2"},{"bufferView":7,"componentType":5123,"count":36,"max":[23],"min":[0],"type":"SCALAR"},{"bufferView":8,"componentType":5126,"count":24,"max":[0.09600000083446503,0.02199999988079071,1.440000057220459],"min":[-0.09600000083446503,-0.02199999988079071,-1.440000057220459],"type":"VEC3"},{"bufferView":9,"componentType":5126,"count":24,"max":[1,1,1],"min":[-1,-1,-1],"type":"VEC3"},{"bufferView":10,"componentType":5126,"count":24,"max":[1,1],"min":[0,0],"type":"VEC2"},{"bufferView":11,"componentType":5123,"count":36,"max":[23],"min":[0],"type":"SCALAR"},{"bufferView":12,"componentType":5126,"count":24,"max":[0.029999999329447746,0.10499999672174454,1.440000057220459],"min":[-0.029999999329447746,-0.10499999672174454,-1.440000057220459],"type":"VEC3"},{"bufferView":13,"componentType":5126,"count":24,"max":[1,1,1],"min":[-1,-1,-1],"type":"VEC3"},{"bufferView":14,"componentType":5126,"count":24,"max":[1,1],"min":[0,0],"type":"VEC2"},{"bufferView":15,"componentType":5123,"count":36,"max":[23],"min":[0],"type":"SCALAR"},{"bufferView":16,"componentType":5126,"count":24,"max":[2,0.10499999672174454,0.029999999329447746],"min":[-2,-0.10499999672174454,-0.029999999329447746],"type":"VEC3"},{"bufferView":17,"componentType":5126,"count":24,"max":[1,1,1],"min":[-1,-1,-1],"type":"VEC3"},{"bufferView":18,"componentType":5126,"count":24,"max":[1,1],"min":[0,0],"type":"VEC2"},{"bufferView":19,"componentType":5123,"count":36,"max":[23],"min":[0],"type":"SCALAR"},{"bufferView":20,"componentType":5126,"count":24,"max":[0.06750000268220901,1.25,0.06750000268220901],"min":[-0.06750000268220901,-1.25,-0.06750000268220901],"type":"VEC3"},{"bufferView":21,"componentType":5126,"count":24,"max":[1,1,1],"min":[-1,-1,-1],"type":"VEC3"},{"bufferView":22,"componentType":5126,"count":24,"max":[1,1],"min":[0,0],"type":"VEC2"},{"bufferView":23,"componentType":5123,"count":36,"max":[23],"min":[0],"type":"SCALAR"},{"bufferView":24,"componentType":5126,"count":24,"max":[0.06750000268220901,1.25,0.06750000268220901],"min":[-0.06750000268220901,-1.25,-0.06750000268220901],"type":"VEC3"},{"bufferView":25,"componentType":5126,"count":24,"max":[1,1,1],"min":[-1,-1,-1],"type":"VEC3"},{"bufferView":26,"componentType":5126,"count":24,"max":[1,1],"min":[0,0],"type":"VEC2"},{"bufferView":27,"componentType":5123,"count":36,"max":[23],"min":[0],"type":"SCALAR"}],"materials":[{"pbrMetallicRoughness":{"baseColorFactor":[0.04091519690055698,0.09305896283800832,0.17788841597328695,1],"metallicFactor":0.5,"roughnessFactor":0.5}},{"pbrMetallicRoughness":{"baseColorFactor":[0.04091519690055698,0.09305896283800832,0.17788841597328695,1],"metallicFactor":0.5,"roughnessFactor":0.5}},{"pbrMetallicRoughness":{"metallicFactor":0.5,"roughnessFactor":0.5},"doubleSided":true},{"pbrMetallicRoughness":{"baseColorFactor":[0.04091519690055698,0.09305896283800832,0.17788841597328695,1],"metallicFactor":0.5,"roughnessFactor":0.5}},{"pbrMetallicRoughness":{"baseColorFactor":[0.04091519690055698,0.09305896283800832,0.17788841597328695,1],"metallicFactor":0.5,"roughnessFactor":0.5}},{"pbrMetallicRoughness":{"baseColorFactor":[0.04091519690055698,0.09305896283800832,0.17788841597328695,1],"metallicFactor":0.5,"roughnessFactor":0.5}},{"pbrMetallicRoughness":{"baseColorFactor":[0.04091519690055698,0.09305896283800832,0.17788841597328695,1],"metallicFactor":0.5,"roughnessFactor":0.5}}],"meshes":[{"primitives":[{"mode":4,"attributes":{"POSITION":0,"NORMAL":1,"TEXCOORD_0":2},"indices":3,"material":0}]},{"primitives":[{"mode":4,"attributes":{"POSITION":4,"NORMAL":5,"TEXCOORD_0":6},"indices":7,"material":1}]},{"primitives":[{"mode":4,"attributes":{"POSITION":8,"NORMAL":9,"TEXCOORD_0":10},"indices":11,"material":2}]},{"primitives":[{"mode":4,"attributes":{"POSITION":12,"NORMAL":13,"TEXCOORD_0":14},"indices":15,"material":3}]},{"primitives":[{"mode":4,"attributes":{"POSITION":16,"NORMAL":17,"TEXCOORD_0":18},"indices":19,"material":4}]},{"primitives":[{"mode":4,"attributes":{"POSITION":20,"NORMAL":21,"TEXCOORD_0":22},"indices":23,"material":5}]},{"primitives":[{"mode":4,"attributes":{"POSITION":24,"NORMAL":25,"TEXCOORD_0":26},"indices":27,"material":6}]}]}